<?xml version="1.0" encoding="UTF-8"?>
<svg viewBox="0 0 592.23901 344.44971" xmlns="http://www.w3.org/2000/svg">
 <defs>
  <filter id="a">
   <feGaussianBlur stdDeviation=".58672"/>
  </filter>
 </defs>
 <g transform="translate(-2.9497 -18.076)" fill-rule="evenodd">
  <g transform="translate(-104 -197.93)" stroke="#000">
   <path transform="matrix(.99975 0 0 1.0553 6.0393 -9.0992)" d="m211.43 266.65c0 28.403-24.305 51.429-54.286 51.429s-54.286-23.025-54.286-51.429 24.305-51.429 54.286-51.429 54.286 23.025 54.286 51.429z" fill="#fff" filter="url(#a)"/>
   <path d="m170.54 243.9h17.211v56.783h-17.211z" fill="#2c2c2c" stroke-width=".93142"/>
   <path d="m138.54 243.9h17.211v56.783h-17.211z" fill="#2c2c2c" stroke-width=".93142"/>
   <path d="m162.66 219.16c-29.13 1e-5 -52.781 24.323-52.781 54.281 46.899-10.605 58.321-10.745 105.53 0 1e-5 -29.958-23.62-54.281-52.75-54.281z" fill="#fff" opacity=".5" stroke-opacity=".18257"/>
  </g>
  <g transform="translate(-104.86 -198)" stroke="#000">
   <path transform="matrix(.99975 0 0 1.0553 126.9 -9.028)" d="m211.43 266.65c0 28.403-24.305 51.429-54.286 51.429s-54.286-23.025-54.286-51.429 24.305-51.429 54.286-51.429 54.286 23.025 54.286 51.429z" fill="#fff" filter="url(#a)"/>
   <path d="m254.87 243.23h58.264v58.264h-58.264z" fill="#2c2c2c" stroke-width="1.7359"/>
   <path d="m283.51 219.23c-29.13 1e-5 -52.781 24.323-52.781 54.281 46.899-10.605 58.321-10.745 105.53 0 1e-5 -29.958-23.62-54.281-52.75-54.281z" fill="#fff" opacity=".5" stroke-opacity=".18257"/>
  </g>
  <g transform="translate(-105 -200)" stroke="#000">
   <path transform="matrix(.99975 0 0 1.0553 247.9 -7.028)" d="m211.43 266.65c0 28.403-24.305 51.429-54.286 51.429s-54.286-23.025-54.286-51.429 24.305-51.429 54.286-51.429 54.286 23.025 54.286 51.429z" fill="#fff" filter="url(#a)"/>
   <path transform="matrix(.70219 -.03352 .03462 .68 263.88 -25.238)" d="m233 452.36-44.049 22.432-44.049 22.432 2.5981-49.363 2.5981-49.363 41.451 26.932z" fill="#2c2c2c" stroke-opacity=".18257"/>
   <path d="m404.51 221.23c-29.13 1e-5 -52.781 24.323-52.781 54.281 46.899-10.605 58.321-10.745 105.53 0 1e-5 -29.958-23.62-54.281-52.75-54.281z" fill="#fff" opacity=".5" stroke-opacity=".18257"/>
  </g>
  <g transform="translate(-4 2.7855)" stroke="#000">
   <path transform="matrix(.99975 0 0 1.0553 264.9 -209.81)" d="m211.43 266.65c0 28.403-24.305 51.429-54.286 51.429s-54.286-23.025-54.286-51.429 24.305-51.429 54.286-51.429 54.286 23.025 54.286 51.429z" fill="#fff" filter="url(#a)"/>
   <path transform="matrix(.26445 -.03704 .03704 .26445 329.03 -36.198)" d="m323 453.36-89.745 36.814-89.745 36.814 12.99-96.129 12.99-96.129 76.755 59.314z" fill="#2c2c2c" stroke-opacity=".18257"/>
   <path transform="matrix(.26445 -.03704 .03704 .26445 359.54 -36.941)" d="m323 453.36-89.745 36.814-89.745 36.814 12.99-96.129 12.99-96.129 76.755 59.314z" fill="#2c2c2c" stroke-opacity=".18257"/>
   <path d="m421.51 18.442c-29.13 1e-5 -52.781 24.323-52.781 54.281 46.899-10.605 58.321-10.745 105.53 0 1e-5 -29.958-23.62-54.281-52.75-54.281z" fill="#fff" opacity=".5" stroke-opacity=".18257"/>
  </g>
  <g transform="translate(-6 6.4373e-6)" stroke="#000">
   <path transform="matrix(.99975 0 0 1.0553 387.9 -207.03)" d="m211.43 266.65c0 28.403-24.305 51.429-54.286 51.429s-54.286-23.025-54.286-51.429 24.305-51.429 54.286-51.429 54.286 23.025 54.286 51.429z" fill="#fff" filter="url(#a)"/>
   <path transform="matrix(-.26445 .03704 -.03704 -.26445 637.97 182.14)" d="m323 453.36-89.745 36.814-89.745 36.814 12.99-96.129 12.99-96.129 76.755 59.314z" fill="#2c2c2c" stroke-opacity=".18257"/>
   <path transform="matrix(-.26445 .03704 -.03704 -.26445 607.46 182.88)" d="m323 453.36-89.745 36.814-89.745 36.814 12.99-96.129 12.99-96.129 76.755 59.314z" fill="#2c2c2c" stroke-opacity=".18257"/>
   <path d="m544.51 21.227c-29.13 1e-5 -52.781 24.323-52.781 54.281 46.899-10.605 58.321-10.745 105.53 0 1e-5 -29.958-23.62-54.281-52.75-54.281z" fill="#fff" opacity=".5" stroke-opacity=".18257"/>
  </g>
  <g transform="translate(0 -120.15)" stroke="#000">
   <path transform="matrix(.99975 0 0 1.0553 -97.961 28.758)" d="m211.43 266.65c0 28.403-24.305 51.429-54.286 51.429s-54.286-23.025-54.286-51.429 24.305-51.429 54.286-51.429 54.286 23.025 54.286 51.429z" fill="#c1c1c1" fill-opacity=".25098" filter="url(#a)"/>
   <path d="m66.537 281.76h17.211v56.783h-17.211z" fill="#2c2c2c" stroke-width=".93142"/>
   <path d="m34.537 281.76h17.211v56.783h-17.211z" fill="#2c2c2c" stroke-width=".93142"/>
   <path d="m58.656 257.01c-29.13 1e-5 -52.781 24.323-52.781 54.281 46.899-10.605 58.321-10.745 105.53 0 1e-5 -29.958-23.62-54.281-52.75-54.281z" fill="#fff" opacity=".5" stroke-opacity=".18257"/>
   <path transform="matrix(.99975 0 0 1.0553 22.039 28.758)" d="m211.43 266.65c0 28.403-24.305 51.429-54.286 51.429s-54.286-23.025-54.286-51.429 24.305-51.429 54.286-51.429 54.286 23.025 54.286 51.429z" fill="#c1c1c1" fill-opacity=".25098" filter="url(#a)"/>
   <path d="m150.01 281.02h58.264v58.264h-58.264z" fill="#2c2c2c" stroke-width="1.7359"/>
   <path d="m178.66 257.01c-29.13 1e-5 -52.781 24.323-52.781 54.281 46.899-10.605 58.321-10.745 105.53 0 1e-5 -29.958-23.62-54.281-52.75-54.281z" fill="#fff" opacity=".5" stroke-opacity=".18257"/>
   <path transform="matrix(.99975 0 0 1.0553 142.9 28.758)" d="m211.43 266.65c0 28.403-24.305 51.429-54.286 51.429s-54.286-23.025-54.286-51.429 24.305-51.429 54.286-51.429 54.286 23.025 54.286 51.429z" fill="#c1c1c1" fill-opacity=".25098" filter="url(#a)"/>
   <path transform="matrix(.70219 -.03352 .03462 .68 158.88 10.548)" d="m233 452.36-44.049 22.432-44.049 22.432 2.5981-49.363 2.5981-49.363 41.451 26.932z" fill="#2c2c2c" stroke-opacity=".18257"/>
   <path d="m299.51 257.01c-29.13 1e-5 -52.781 24.323-52.781 54.281 46.899-10.605 58.321-10.745 105.53 0 1e-5 -29.958-23.62-54.281-52.75-54.281z" fill="#fff" opacity=".5" stroke-opacity=".18257"/>
   <path transform="matrix(.99975 0 0 1.0553 260.9 28.758)" d="m211.43 266.65c0 28.403-24.305 51.429-54.286 51.429s-54.286-23.025-54.286-51.429 24.305-51.429 54.286-51.429 54.286 23.025 54.286 51.429z" fill="#c1c1c1" fill-opacity=".25098" filter="url(#a)"/>
   <path transform="matrix(.26445 -.03704 .03704 .26445 325.03 202.37)" d="m323 453.36-89.745 36.814-89.745 36.814 12.99-96.129 12.99-96.129 76.755 59.314z" fill="#2c2c2c" stroke-opacity=".18257"/>
   <path transform="matrix(.26445 -.03704 .03704 .26445 355.54 201.63)" d="m323 453.36-89.745 36.814-89.745 36.814 12.99-96.129 12.99-96.129 76.755 59.314z" fill="#2c2c2c" stroke-opacity=".18257"/>
   <path d="m417.51 257.01c-29.13 1e-5 -52.781 24.323-52.781 54.281 46.899-10.605 58.321-10.745 105.53 0 1e-5 -29.958-23.62-54.281-52.75-54.281z" fill="#fff" opacity=".5" stroke-opacity=".18257"/>
   <path transform="matrix(.99975 0 0 1.0553 381.9 28.758)" d="m211.43 266.65c0 28.403-24.305 51.429-54.286 51.429s-54.286-23.025-54.286-51.429 24.305-51.429 54.286-51.429 54.286 23.025 54.286 51.429z" fill="#c1c1c1" fill-opacity=".25098" filter="url(#a)"/>
   <path transform="matrix(-.26445 .03704 -.03704 -.26445 631.97 417.92)" d="m323 453.36-89.745 36.814-89.745 36.814 12.99-96.129 12.99-96.129 76.755 59.314z" fill="#2c2c2c" stroke-opacity=".18257"/>
   <path transform="matrix(-.26445 .03704 -.03704 -.26445 601.46 418.67)" d="m323 453.36-89.745 36.814-89.745 36.814 12.99-96.129 12.99-96.129 76.755 59.314z" fill="#2c2c2c" stroke-opacity=".18257"/>
   <path d="m538.51 257.01c-29.13 1e-5 -52.781 24.323-52.781 54.281 46.899-10.605 58.321-10.745 105.53 0 1e-5 -29.958-23.62-54.281-52.75-54.281z" fill="#fff" opacity=".5" stroke-opacity=".18257"/>
  </g>
  <path transform="matrix(.99975 0 0 1.0553 -97.961 24.865)" d="m211.43 266.65a54.286 51.429 0 1 1 -108.57 0 54.286 51.429 0 1 1 108.57 0z" fill="#fff" filter="url(#a)" stroke="#000"/>
  <path d="m66.537 277.86h17.211v56.783h-17.211z" fill="#2c2c2c" stroke="#000" stroke-width=".93142"/>
  <path d="m34.537 277.86h17.211v56.783h-17.211z" fill="#2c2c2c" stroke="#000" stroke-width=".93142"/>
  <path d="m58.656 253.12c-29.13 1e-5 -52.781 24.323-52.781 54.281 46.899-10.605 58.321-10.745 105.53 0 1e-5 -29.958-23.62-54.281-52.75-54.281z" fill="#fff" opacity=".5" stroke="#000" stroke-opacity=".18257"/>
  <path transform="matrix(.99975 0 0 1.0553 -97.961 24.865)" d="m211.43 266.65a54.286 51.429 0 1 1 -108.57 0 54.286 51.429 0 1 1 108.57 0z" fill="#fff" fill-opacity=".51765" filter="url(#a)"/>
  <g transform="translate(-104.86 33.893)" stroke="#000">
   <path transform="matrix(.99975 0 0 1.0553 126.9 -9.028)" d="m211.43 266.65c0 28.403-24.305 51.429-54.286 51.429s-54.286-23.025-54.286-51.429 24.305-51.429 54.286-51.429 54.286 23.025 54.286 51.429z" fill="#fff" filter="url(#a)"/>
   <path d="m254.87 243.23h58.264v58.264h-58.264z" fill="#2c2c2c" stroke-width="1.7359"/>
   <path d="m283.51 219.23c-29.13 1e-5 -52.781 24.323-52.781 54.281 46.899-10.605 58.321-10.745 105.53 0 1e-5 -29.958-23.62-54.281-52.75-54.281z" fill="#fff" opacity=".5" stroke-opacity=".18257"/>
  </g>
  <path transform="matrix(.99975 0 0 1.0553 22.039 24.865)" d="m211.43 266.65a54.286 51.429 0 1 1 -108.57 0 54.286 51.429 0 1 1 108.57 0z" fill="#fff" fill-opacity=".51765" filter="url(#a)"/>
  <g transform="translate(-105 31.893)" stroke="#000">
   <path transform="matrix(.99975 0 0 1.0553 247.9 -7.028)" d="m211.43 266.65c0 28.403-24.305 51.429-54.286 51.429s-54.286-23.025-54.286-51.429 24.305-51.429 54.286-51.429 54.286 23.025 54.286 51.429z" fill="#fff" filter="url(#a)"/>
   <path transform="matrix(.70219 -.03352 .03462 .68 263.88 -25.238)" d="m233 452.36-44.049 22.432-44.049 22.432 2.5981-49.363 2.5981-49.363 41.451 26.932z" fill="#2c2c2c" stroke-opacity=".18257"/>
   <path d="m404.51 221.23c-29.13 1e-5 -52.781 24.323-52.781 54.281 46.899-10.605 58.321-10.745 105.53 0 1e-5 -29.958-23.62-54.281-52.75-54.281z" fill="#fff" opacity=".5" stroke-opacity=".18257"/>
  </g>
  <path transform="matrix(.99975 0 0 1.0553 142.9 24.865)" d="m211.43 266.65a54.286 51.429 0 1 1 -108.57 0 54.286 51.429 0 1 1 108.57 0z" fill="#fff" fill-opacity=".51765" filter="url(#a)"/>
  <g transform="translate(-4 234.68)" stroke="#000">
   <path transform="matrix(.99975 0 0 1.0553 264.9 -209.81)" d="m211.43 266.65c0 28.403-24.305 51.429-54.286 51.429s-54.286-23.025-54.286-51.429 24.305-51.429 54.286-51.429 54.286 23.025 54.286 51.429z" fill="#fff" filter="url(#a)"/>
   <path transform="matrix(.26445 -.03704 .03704 .26445 329.03 -36.198)" d="m323 453.36-89.745 36.814-89.745 36.814 12.99-96.129 12.99-96.129 76.755 59.314z" fill="#2c2c2c" stroke-opacity=".18257"/>
   <path transform="matrix(.26445 -.03704 .03704 .26445 359.54 -36.941)" d="m323 453.36-89.745 36.814-89.745 36.814 12.99-96.129 12.99-96.129 76.755 59.314z" fill="#2c2c2c" stroke-opacity=".18257"/>
   <path d="m421.51 18.442c-29.13 1e-5 -52.781 24.323-52.781 54.281 46.899-10.605 58.321-10.745 105.53 0 1e-5 -29.958-23.62-54.281-52.75-54.281z" fill="#fff" opacity=".5" stroke-opacity=".18257"/>
  </g>
  <path transform="matrix(.99975 0 0 1.0553 260.9 24.865)" d="m211.43 266.65a54.286 51.429 0 1 1 -108.57 0 54.286 51.429 0 1 1 108.57 0z" fill="#fff" fill-opacity=".51765" filter="url(#a)"/>
  <g transform="translate(-6 231.89)" stroke="#000">
   <path transform="matrix(.99975 0 0 1.0553 387.9 -207.03)" d="m211.43 266.65c0 28.403-24.305 51.429-54.286 51.429s-54.286-23.025-54.286-51.429 24.305-51.429 54.286-51.429 54.286 23.025 54.286 51.429z" fill="#fff" filter="url(#a)"/>
   <path transform="matrix(-.26445 .03704 -.03704 -.26445 637.97 182.14)" d="m323 453.36-89.745 36.814-89.745 36.814 12.99-96.129 12.99-96.129 76.755 59.314z" fill="#2c2c2c" stroke-opacity=".18257"/>
   <path transform="matrix(-.26445 .03704 -.03704 -.26445 607.46 182.88)" d="m323 453.36-89.745 36.814-89.745 36.814 12.99-96.129 12.99-96.129 76.755 59.314z" fill="#2c2c2c" stroke-opacity=".18257"/>
   <path d="m544.51 21.227c-29.13 1e-5 -52.781 24.323-52.781 54.281 46.899-10.605 58.321-10.745 105.53 0 1e-5 -29.958-23.62-54.281-52.75-54.281z" fill="#fff" opacity=".5" stroke-opacity=".18257"/>
  </g>
  <path transform="matrix(.99975 0 0 1.0553 381.9 24.865)" d="m211.43 266.65a54.286 51.429 0 1 1 -108.57 0 54.286 51.429 0 1 1 108.57 0z" fill="#fff" fill-opacity=".51765" filter="url(#a)"/>
 </g>
</svg>
